<svg width="126" height="68" viewBox="0 0 126 68" fill="none" xmlns="http://www.w3.org/2000/svg">
<path fill-rule="evenodd" clip-rule="evenodd" d="M51.8398 31.5547L68.118 7.51309Z" fill="#FBFBFB"/>
<path d="M51.8398 31.5547L68.118 7.51309" stroke="#FBFBFB" stroke-width="0.500867" stroke-linecap="square"/>
<path fill-rule="evenodd" clip-rule="evenodd" d="M54.3442 10.7687L68.1181 7.51309Z" fill="#FBFBFB"/>
<path d="M54.3442 10.7687L68.1181 7.51309" stroke="#FBFBFB" stroke-width="0.500867" stroke-linecap="square"/>
<path fill-rule="evenodd" clip-rule="evenodd" d="M54.3439 10.7687L50.5874 1.25218Z" fill="#FBFBFB"/>
<path d="M54.3439 10.7687L50.5874 1.25218" stroke="#FBFBFB" stroke-width="0.500867" stroke-linecap="square"/>
<path fill-rule="evenodd" clip-rule="evenodd" d="M41.3218 1.75305L50.5878 1.25218Z" fill="#FBFBFB"/>
<path d="M41.3218 1.75305L50.5878 1.25218" stroke="#FBFBFB" stroke-width="0.500867" stroke-linecap="square"/>
<path fill-rule="evenodd" clip-rule="evenodd" d="M41.3215 1.7531L22.2886 25.2939Z" fill="#FBFBFB"/>
<path d="M41.3215 1.7531L22.2886 25.2939" stroke="#FBFBFB" stroke-width="0.500867" stroke-linecap="square"/>
<path fill-rule="evenodd" clip-rule="evenodd" d="M23.5407 45.8294L22.2886 25.2939Z" fill="#FBFBFB"/>
<path d="M23.5407 45.8294L22.2886 25.2939" stroke="#FBFBFB" stroke-width="0.500867" stroke-linecap="square"/>
<path fill-rule="evenodd" clip-rule="evenodd" d="M23.5405 45.8293L16.5283 50.838Z" fill="#FBFBFB"/>
<path d="M23.5405 45.8293L16.5283 50.838" stroke="#FBFBFB" stroke-width="0.500867" stroke-linecap="square"/>
<path fill-rule="evenodd" clip-rule="evenodd" d="M1.25195 65.864L16.5284 50.838Z" fill="#FBFBFB"/>
<path d="M1.25195 65.864L16.5284 50.838" stroke="#FBFBFB" stroke-width="0.500867" stroke-linecap="square"/>
<path fill-rule="evenodd" clip-rule="evenodd" d="M91.408 32.8069L68.1177 7.51309Z" fill="#FBFBFB"/>
<path d="M91.408 32.8069L68.1177 7.51309" stroke="#FBFBFB" stroke-width="0.500867" stroke-linecap="square"/>
<path fill-rule="evenodd" clip-rule="evenodd" d="M91.4082 32.8068L124.215 56.3475Z" fill="#FBFBFB"/>
<path d="M91.4082 32.8068L124.215 56.3475" stroke="#FBFBFB" stroke-width="0.500867" stroke-linecap="square"/>
<path fill-rule="evenodd" clip-rule="evenodd" d="M51.8398 31.5547L56.8485 53.8433Z" fill="#FBFBFB"/>
<path d="M51.8398 31.5547L56.8485 53.8433" stroke="#FBFBFB" stroke-width="0.500867" stroke-linecap="square"/>
<circle cx="22.2883" cy="25.2939" r="1.00173" fill="#FBFBFB" stroke="#FBFBFB" stroke-width="0.500867"/>
<circle cx="41.3215" cy="1.75308" r="1.00173" fill="#FBFBFB" stroke="#FBFBFB" stroke-width="0.500867"/>
<circle cx="50.5876" cy="1.25217" r="1.00173" fill="#FBFBFB" stroke="#FBFBFB" stroke-width="0.500867"/>
<circle cx="54.344" cy="10.7687" r="1.00173" fill="#FBFBFB" stroke="#FBFBFB" stroke-width="0.500867"/>
<circle cx="68.1179" cy="7.51308" r="1.00173" fill="#FBFBFB" stroke="#FBFBFB" stroke-width="0.500867"/>
<circle cx="51.8396" cy="31.5547" r="1.00173" fill="#FBFBFB" stroke="#FBFBFB" stroke-width="0.500867"/>
<circle cx="56.8484" cy="53.8433" r="1.00173" fill="#FBFBFB" stroke="#FBFBFB" stroke-width="0.500867"/>
<circle cx="91.4084" cy="32.8069" r="1.00173" fill="#FBFBFB" stroke="#FBFBFB" stroke-width="0.500867"/>
<circle cx="23.5407" cy="45.8294" r="1.00173" fill="#FBFBFB" stroke="#FBFBFB" stroke-width="0.500867"/>
<circle cx="16.5285" cy="50.838" r="1.00173" fill="#FBFBFB" stroke="#FBFBFB" stroke-width="0.500867"/>
<circle cx="124.215" cy="56.3476" r="1.00173" fill="#FBFBFB" stroke="#FBFBFB" stroke-width="0.500867"/>
<circle cx="1.25217" cy="65.8641" r="1.00173" fill="#FBFBFB" stroke="#FBFBFB" stroke-width="0.500867"/>
</svg>
