<svg width="91" height="73" viewBox="0 0 91 73" fill="none" xmlns="http://www.w3.org/2000/svg">
<circle cx="8.08805" cy="71.5174" r="1.00173" transform="rotate(-95.5311 8.08805 71.5174)" fill="#FBFBFB" stroke="#FBFBFB" stroke-width="0.500867"/>
<circle cx="36.319" cy="56.4551" r="1.00173" transform="rotate(-95.5311 36.319 56.4551)" fill="#FBFBFB" stroke="#FBFBFB" stroke-width="0.500867"/>
<circle cx="50.6637" cy="51.2917" r="1.00173" transform="rotate(-95.5311 50.6637 51.2917)" fill="#FBFBFB" stroke="#FBFBFB" stroke-width="0.500867"/>
<circle cx="88.5129" cy="60.2067" r="1.00173" transform="rotate(-95.5311 88.5129 60.2067)" fill="#FBFBFB" stroke="#FBFBFB" stroke-width="0.500867"/>
<circle cx="76.6569" cy="2.73084" r="1.00173" transform="rotate(-95.5311 76.6569 2.73084)" fill="#FBFBFB" stroke="#FBFBFB" stroke-width="0.500867"/>
<path fill-rule="evenodd" clip-rule="evenodd" d="M36.3187 56.4549L8.08789 71.5174Z" fill="#FBFBFB"/>
<path d="M36.3187 56.4549L8.08789 71.5174" stroke="#FBFBFB" stroke-width="0.500867" stroke-linecap="square"/>
<path fill-rule="evenodd" clip-rule="evenodd" d="M36.3186 56.4547L50.6633 51.2915Z" fill="#FBFBFB"/>
<path d="M36.3186 56.4547L50.6633 51.2915" stroke="#FBFBFB" stroke-width="0.500867" stroke-linecap="square"/>
<path fill-rule="evenodd" clip-rule="evenodd" d="M88.5129 60.2067L50.6637 51.2916Z" fill="#FBFBFB"/>
<path d="M88.5129 60.2067L50.6637 51.2916" stroke="#FBFBFB" stroke-width="0.500867" stroke-linecap="square"/>
<path fill-rule="evenodd" clip-rule="evenodd" d="M76.6569 2.73085L50.6636 51.2917Z" fill="#FBFBFB"/>
<path d="M76.6569 2.73085L50.6636 51.2917" stroke="#FBFBFB" stroke-width="0.500867" stroke-linecap="square"/>
</svg>
