<svg width="104" height="64" viewBox="0 0 104 64" fill="none" xmlns="http://www.w3.org/2000/svg">
<circle cx="14.2746" cy="22.2885" r="1.00173" fill="#FBFBFB" stroke="#FBFBFB" stroke-width="0.500867"/>
<circle cx="30.5525" cy="23.7912" r="1.00173" fill="#FBFBFB" stroke="#FBFBFB" stroke-width="0.500867"/>
<circle cx="2.00314" cy="23.5408" r="1.00173" fill="#FBFBFB" stroke="#FBFBFB" stroke-width="0.500867"/>
<circle cx="50.5871" cy="24.5424" r="1.00173" fill="#FBFBFB" stroke="#FBFBFB" stroke-width="0.500867"/>
<circle cx="96.1662" cy="14.2747" r="1.00173" fill="#FBFBFB" stroke="#FBFBFB" stroke-width="0.500867"/>
<circle cx="77.634" cy="52.8415" r="1.00173" fill="#FBFBFB" stroke="#FBFBFB" stroke-width="0.500867"/>
<circle cx="67.3664" cy="61.857" r="1.00173" fill="#FBFBFB" stroke="#FBFBFB" stroke-width="0.500867"/>
<circle cx="30.5525" cy="47.5824" r="1.00173" fill="#FBFBFB" stroke="#FBFBFB" stroke-width="0.500867"/>
<circle cx="94.9138" cy="2.50426" r="1.00173" fill="#FBFBFB" stroke="#FBFBFB" stroke-width="0.500867"/>
<circle cx="102.677" cy="1.25218" r="1.00173" fill="#FBFBFB" stroke="#FBFBFB" stroke-width="0.500867"/>
<path fill-rule="evenodd" clip-rule="evenodd" d="M30.5528 47.5823L2.00342 23.5407Z" fill="#FBFBFB"/>
<path d="M30.5528 47.5823L2.00342 23.5407" stroke="#FBFBFB" stroke-width="0.500867" stroke-linecap="square"/>
<path fill-rule="evenodd" clip-rule="evenodd" d="M30.5527 47.5823L67.3665 61.857Z" fill="#FBFBFB"/>
<path d="M30.5527 47.5823L67.3665 61.857" stroke="#FBFBFB" stroke-width="0.500867" stroke-linecap="square"/>
<path fill-rule="evenodd" clip-rule="evenodd" d="M77.634 52.8415L67.3662 61.8571Z" fill="#FBFBFB"/>
<path d="M77.634 52.8415L67.3662 61.8571" stroke="#FBFBFB" stroke-width="0.500867" stroke-linecap="square"/>
<path fill-rule="evenodd" clip-rule="evenodd" d="M77.6343 52.8415L96.1664 14.2747Z" fill="#FBFBFB"/>
<path d="M77.6343 52.8415L96.1664 14.2747" stroke="#FBFBFB" stroke-width="0.500867" stroke-linecap="square"/>
<path fill-rule="evenodd" clip-rule="evenodd" d="M94.9141 2.50438L96.1662 14.2748Z" fill="#FBFBFB"/>
<path d="M94.9141 2.50438L96.1662 14.2748" stroke="#FBFBFB" stroke-width="0.500867" stroke-linecap="square"/>
<path fill-rule="evenodd" clip-rule="evenodd" d="M94.9141 2.50426L102.678 1.25209Z" fill="#FBFBFB"/>
<path d="M94.9141 2.50426L102.678 1.25209" stroke="#FBFBFB" stroke-width="0.500867" stroke-linecap="square"/>
<path fill-rule="evenodd" clip-rule="evenodd" d="M50.5874 24.5425L96.1663 14.2747Z" fill="#FBFBFB"/>
<path d="M50.5874 24.5425L96.1663 14.2747" stroke="#FBFBFB" stroke-width="0.500867" stroke-linecap="square"/>
<path fill-rule="evenodd" clip-rule="evenodd" d="M50.5874 24.5425L30.5527 23.7912Z" fill="#FBFBFB"/>
<path d="M50.5874 24.5425L30.5527 23.7912" stroke="#FBFBFB" stroke-width="0.500867" stroke-linecap="square"/>
<path fill-rule="evenodd" clip-rule="evenodd" d="M14.2744 22.2886L30.5526 23.7912Z" fill="#FBFBFB"/>
<path d="M14.2744 22.2886L30.5526 23.7912" stroke="#FBFBFB" stroke-width="0.500867" stroke-linecap="square"/>
<path fill-rule="evenodd" clip-rule="evenodd" d="M14.2747 22.2886L2.00342 23.2903Z" fill="#FBFBFB"/>
<path d="M14.2747 22.2886L2.00342 23.2903" stroke="#FBFBFB" stroke-width="0.500867" stroke-linecap="square"/>
</svg>
