<svg width="106" height="63" viewBox="0 0 106 63" fill="none" xmlns="http://www.w3.org/2000/svg">
<circle cx="92.9109" cy="40.3198" r="1.00173" fill="#FBFBFB" stroke="#FBFBFB" stroke-width="0.500867"/>
<circle cx="77.6345" cy="30.3025" r="1.00173" fill="#FBFBFB" stroke="#FBFBFB" stroke-width="0.500867"/>
<circle cx="77.6345" cy="17.0295" r="1.00173" fill="#FBFBFB" stroke="#FBFBFB" stroke-width="0.500867"/>
<circle cx="96.1667" cy="1.25213" r="1.00173" fill="#FBFBFB" stroke="#FBFBFB" stroke-width="0.500867"/>
<circle cx="104.681" cy="9.01558" r="1.00173" fill="#FBFBFB" stroke="#FBFBFB" stroke-width="0.500867"/>
<circle cx="34.5598" cy="55.0953" r="1.00173" fill="#FBFBFB" stroke="#FBFBFB" stroke-width="0.500867"/>
<circle cx="1.25217" cy="61.1058" r="1.00173" fill="#FBFBFB" stroke="#FBFBFB" stroke-width="0.500867"/>
<circle cx="33.3073" cy="35.812" r="1.00173" fill="#FBFBFB" stroke="#FBFBFB" stroke-width="0.500867"/>
<circle cx="96.1667" cy="57.5997" r="1.00173" fill="#FBFBFB" stroke="#FBFBFB" stroke-width="0.500867"/>
<path fill-rule="evenodd" clip-rule="evenodd" d="M92.9111 40.3198L96.1668 57.5998Z" fill="#FBFBFB"/>
<path d="M92.9111 40.3198L96.1668 57.5998" stroke="#FBFBFB" stroke-width="0.500867" stroke-linecap="square"/>
<path fill-rule="evenodd" clip-rule="evenodd" d="M34.56 55.0954L96.1667 57.5997Z" fill="#FBFBFB"/>
<path d="M34.56 55.0954L96.1667 57.5997" stroke="#FBFBFB" stroke-width="0.500867" stroke-linecap="square"/>
<path fill-rule="evenodd" clip-rule="evenodd" d="M34.5596 55.0954L1.25195 61.1058Z" fill="#FBFBFB"/>
<path d="M34.5596 55.0954L1.25195 61.1058" stroke="#FBFBFB" stroke-width="0.500867" stroke-linecap="square"/>
<path fill-rule="evenodd" clip-rule="evenodd" d="M33.3074 35.812L1.25195 61.1058Z" fill="#FBFBFB"/>
<path d="M33.3074 35.812L1.25195 61.1058" stroke="#FBFBFB" stroke-width="0.500867" stroke-linecap="square"/>
<path fill-rule="evenodd" clip-rule="evenodd" d="M33.3076 35.812L77.6344 30.3025Z" fill="#FBFBFB"/>
<path d="M33.3076 35.812L77.6344 30.3025" stroke="#FBFBFB" stroke-width="0.500867" stroke-linecap="square"/>
<path fill-rule="evenodd" clip-rule="evenodd" d="M92.9107 40.3198L77.6343 30.3025Z" fill="#FBFBFB"/>
<path d="M92.9107 40.3198L77.6343 30.3025" stroke="#FBFBFB" stroke-width="0.500867" stroke-linecap="square"/>
<path fill-rule="evenodd" clip-rule="evenodd" d="M77.6342 17.0295V30.3025Z" fill="#FBFBFB"/>
<path d="M77.6342 17.0295V30.3025" stroke="#FBFBFB" stroke-width="0.500867" stroke-linecap="square"/>
<path fill-rule="evenodd" clip-rule="evenodd" d="M77.6343 17.0295L96.1664 1.25215Z" fill="#FBFBFB"/>
<path d="M77.6343 17.0295L96.1664 1.25215" stroke="#FBFBFB" stroke-width="0.500867" stroke-linecap="square"/>
<path fill-rule="evenodd" clip-rule="evenodd" d="M104.681 9.01559L96.1665 1.25215Z" fill="#FBFBFB"/>
<path d="M104.681 9.01559L96.1665 1.25215" stroke="#FBFBFB" stroke-width="0.500867" stroke-linecap="square"/>
</svg>
