<svg width="102" height="107" viewBox="0 0 102 107" fill="none" xmlns="http://www.w3.org/2000/svg">
<circle cx="32.5053" cy="72.936" r="1.00173" transform="rotate(-23.5678 32.5053 72.936)" fill="#FBFBFB" stroke="#FBFBFB" stroke-width="0.500867"/>
<circle cx="23.2377" cy="22.8802" r="1.00173" transform="rotate(-23.5678 23.2377 22.8802)" fill="#FBFBFB" stroke="#FBFBFB" stroke-width="0.500867"/>
<circle cx="20.0019" cy="71.8327" r="1.00173" transform="rotate(-23.5678 20.0019 71.8327)" fill="#FBFBFB" stroke="#FBFBFB" stroke-width="0.500867"/>
<circle cx="55.6621" cy="7.64321" r="1.00173" transform="rotate(-23.5678 55.6621 7.64321)" fill="#FBFBFB" stroke="#FBFBFB" stroke-width="0.500867"/>
<circle cx="84.079" cy="38.963" r="1.00173" transform="rotate(-23.5678 84.079 38.963)" fill="#FBFBFB" stroke="#FBFBFB" stroke-width="0.500867"/>
<circle cx="86.6572" cy="81.8275" r="1.00173" transform="rotate(-23.5678 86.6572 81.8275)" fill="#FBFBFB" stroke="#FBFBFB" stroke-width="0.500867"/>
<circle cx="76.7836" cy="75.4787" r="1.00173" transform="rotate(-23.5678 76.7836 75.4787)" fill="#FBFBFB" stroke="#FBFBFB" stroke-width="0.500867"/>
<circle cx="34.4067" cy="51.6147" r="1.00173" transform="rotate(-23.5678 34.4067 51.6147)" fill="#FBFBFB" stroke="#FBFBFB" stroke-width="0.500867"/>
<path fill-rule="evenodd" clip-rule="evenodd" d="M84.0786 38.9631L55.6621 7.64308Z" fill="#FBFBFB"/>
<path d="M84.0786 38.9631L55.6621 7.64308" stroke="#FBFBFB" stroke-width="0.500867" stroke-linecap="square"/>
<path fill-rule="evenodd" clip-rule="evenodd" d="M84.0786 38.9632L23.2378 22.8802Z" fill="#FBFBFB"/>
<path d="M84.0786 38.9632L23.2378 22.8802" stroke="#FBFBFB" stroke-width="0.500867" stroke-linecap="square"/>
<path fill-rule="evenodd" clip-rule="evenodd" d="M84.0786 38.9631L76.7835 75.4787Z" fill="#FBFBFB"/>
<path d="M84.0786 38.9631L76.7835 75.4787" stroke="#FBFBFB" stroke-width="0.500867" stroke-linecap="square"/>
<path fill-rule="evenodd" clip-rule="evenodd" d="M86.657 81.8276L76.7837 75.4788Z" fill="#FBFBFB"/>
<path d="M86.657 81.8276L76.7837 75.4788" stroke="#FBFBFB" stroke-width="0.500867" stroke-linecap="square"/>
<path fill-rule="evenodd" clip-rule="evenodd" d="M34.4065 51.6148L23.2381 22.8802Z" fill="#FBFBFB"/>
<path d="M34.4065 51.6148L23.2381 22.8802" stroke="#FBFBFB" stroke-width="0.500867" stroke-linecap="square"/>
<path fill-rule="evenodd" clip-rule="evenodd" d="M34.4064 51.6147L32.505 72.936Z" fill="#FBFBFB"/>
<path d="M34.4064 51.6147L32.505 72.936" stroke="#FBFBFB" stroke-width="0.500867" stroke-linecap="square"/>
<path fill-rule="evenodd" clip-rule="evenodd" d="M20.002 71.8327L32.5051 72.936Z" fill="#FBFBFB"/>
<path d="M20.002 71.8327L32.5051 72.936" stroke="#FBFBFB" stroke-width="0.500867" stroke-linecap="square"/>
<path fill-rule="evenodd" clip-rule="evenodd" d="M55.6622 7.6431L23.2379 22.8801Z" fill="#FBFBFB"/>
<path d="M55.6622 7.6431L23.2379 22.8801" stroke="#FBFBFB" stroke-width="0.500867" stroke-linecap="square"/>
</svg>
