<svg width="153" height="128" viewBox="0 0 153 128" fill="none" xmlns="http://www.w3.org/2000/svg">
<circle cx="43.3486" cy="42.6343" r="1.00173" transform="rotate(-21.5441 43.3486 42.6343)" fill="#FBFBFB" stroke="#FBFBFB" stroke-width="0.500867"/>
<circle cx="48.9814" cy="30.9869" r="1.00173" transform="rotate(-21.5441 48.9814 30.9869)" fill="#FBFBFB" stroke="#FBFBFB" stroke-width="0.500867"/>
<circle cx="53.6411" cy="49.6099" r="1.00173" transform="rotate(-21.5441 53.6411 49.6099)" fill="#FBFBFB" stroke="#FBFBFB" stroke-width="0.500867"/>
<circle cx="46.0234" cy="78.7342" r="1.00173" transform="rotate(-21.5441 46.0234 78.7342)" fill="#FBFBFB" stroke="#FBFBFB" stroke-width="0.500867"/>
<circle cx="38.7353" cy="96.4197" r="1.00173" transform="rotate(-21.5441 38.7353 96.4197)" fill="#FBFBFB" stroke="#FBFBFB" stroke-width="0.500867"/>
<circle cx="29.56" cy="120.235" r="1.00173" transform="rotate(-21.5441 29.56 120.235)" fill="#FBFBFB" stroke="#FBFBFB" stroke-width="0.500867"/>
<circle cx="44.2593" cy="109.047" r="1.00173" transform="rotate(-21.5441 44.2593 109.047)" fill="#FBFBFB" stroke="#FBFBFB" stroke-width="0.500867"/>
<circle cx="52.1733" cy="107.269" r="1.00173" transform="rotate(-21.5441 52.1733 107.269)" fill="#FBFBFB" stroke="#FBFBFB" stroke-width="0.500867"/>
<circle cx="68.3252" cy="93.6228" r="1.00173" transform="rotate(-21.5441 68.3252 93.6228)" fill="#FBFBFB" stroke="#FBFBFB" stroke-width="0.500867"/>
<circle cx="80.8979" cy="90.0053" r="1.00173" transform="rotate(-21.5441 80.8979 90.0053)" fill="#FBFBFB" stroke="#FBFBFB" stroke-width="0.500867"/>
<circle cx="113.926" cy="77.5044" r="1.00173" transform="rotate(-21.5441 113.926 77.5044)" fill="#FBFBFB" stroke="#FBFBFB" stroke-width="0.500867"/>
<circle cx="128.594" cy="73.0595" r="1.00173" transform="rotate(-21.5441 128.594 73.0595)" fill="#FBFBFB" stroke="#FBFBFB" stroke-width="0.500867"/>
<circle cx="135.883" cy="65.605" r="1.00173" transform="rotate(-21.5441 135.883 65.605)" fill="#FBFBFB" stroke="#FBFBFB" stroke-width="0.500867"/>
<circle cx="147.904" cy="70.8209" r="1.00173" transform="rotate(-21.5441 147.904 70.8209)" fill="#FBFBFB" stroke="#FBFBFB" stroke-width="0.500867"/>
<circle cx="142.412" cy="82.1434" r="1.00173" transform="rotate(-21.5441 142.412 82.1434)" fill="#FBFBFB" stroke="#FBFBFB" stroke-width="0.500867"/>
<circle cx="130.49" cy="86.0427" r="1.00173" transform="rotate(-21.5441 130.49 86.0427)" fill="#FBFBFB" stroke="#FBFBFB" stroke-width="0.500867"/>
<path fill-rule="evenodd" clip-rule="evenodd" d="M53.6416 49.6098L48.9817 30.9869Z" fill="#FBFBFB"/>
<path d="M53.6416 49.6098L48.9817 30.9869" stroke="#FBFBFB" stroke-width="0.500867" stroke-linecap="square"/>
<path fill-rule="evenodd" clip-rule="evenodd" d="M53.6411 49.6098L46.023 78.7341Z" fill="#FBFBFB"/>
<path d="M53.6411 49.6098L46.023 78.7341" stroke="#FBFBFB" stroke-width="0.500867" stroke-linecap="square"/>
<path fill-rule="evenodd" clip-rule="evenodd" d="M38.7357 96.4196L46.0234 78.734Z" fill="#FBFBFB"/>
<path d="M38.7357 96.4196L46.0234 78.734" stroke="#FBFBFB" stroke-width="0.500867" stroke-linecap="square"/>
<path fill-rule="evenodd" clip-rule="evenodd" d="M38.7353 96.4197L29.5599 120.235Z" fill="#FBFBFB"/>
<path d="M38.7353 96.4197L29.5599 120.235" stroke="#FBFBFB" stroke-width="0.500867" stroke-linecap="square"/>
<path fill-rule="evenodd" clip-rule="evenodd" d="M44.2593 109.047L29.56 120.235Z" fill="#FBFBFB"/>
<path d="M44.2593 109.047L29.56 120.235" stroke="#FBFBFB" stroke-width="0.500867" stroke-linecap="square"/>
<path fill-rule="evenodd" clip-rule="evenodd" d="M44.2593 109.047L52.1731 107.269Z" fill="#FBFBFB"/>
<path d="M44.2593 109.047L52.1731 107.269" stroke="#FBFBFB" stroke-width="0.500867" stroke-linecap="square"/>
<path fill-rule="evenodd" clip-rule="evenodd" d="M68.3254 93.6227L52.1734 107.269Z" fill="#FBFBFB"/>
<path d="M68.3254 93.6227L52.1734 107.269" stroke="#FBFBFB" stroke-width="0.500867" stroke-linecap="square"/>
<path fill-rule="evenodd" clip-rule="evenodd" d="M68.3252 93.6228L80.8977 90.0054Z" fill="#FBFBFB"/>
<path d="M68.3252 93.6228L80.8977 90.0054" stroke="#FBFBFB" stroke-width="0.500867" stroke-linecap="square"/>
<path fill-rule="evenodd" clip-rule="evenodd" d="M113.926 77.5045L80.8975 90.0054Z" fill="#FBFBFB"/>
<path d="M113.926 77.5045L80.8975 90.0054" stroke="#FBFBFB" stroke-width="0.500867" stroke-linecap="square"/>
<path fill-rule="evenodd" clip-rule="evenodd" d="M113.926 77.5045L128.595 73.0594Z" fill="#FBFBFB"/>
<path d="M113.926 77.5045L128.595 73.0594" stroke="#FBFBFB" stroke-width="0.500867" stroke-linecap="square"/>
<path fill-rule="evenodd" clip-rule="evenodd" d="M130.49 86.0425L128.595 73.0592Z" fill="#FBFBFB"/>
<path d="M130.49 86.0425L128.595 73.0592" stroke="#FBFBFB" stroke-width="0.500867" stroke-linecap="square"/>
<path fill-rule="evenodd" clip-rule="evenodd" d="M130.49 86.0426L142.412 82.1433Z" fill="#FBFBFB"/>
<path d="M130.49 86.0426L142.412 82.1433" stroke="#FBFBFB" stroke-width="0.500867" stroke-linecap="square"/>
<path fill-rule="evenodd" clip-rule="evenodd" d="M147.904 70.8209L142.412 82.1434Z" fill="#FBFBFB"/>
<path d="M147.904 70.8209L142.412 82.1434" stroke="#FBFBFB" stroke-width="0.500867" stroke-linecap="square"/>
<path fill-rule="evenodd" clip-rule="evenodd" d="M147.904 70.8208L135.883 65.6048Z" fill="#FBFBFB"/>
<path d="M147.904 70.8208L135.883 65.6048" stroke="#FBFBFB" stroke-width="0.500867" stroke-linecap="square"/>
<path fill-rule="evenodd" clip-rule="evenodd" d="M128.595 73.0594L135.883 65.6048Z" fill="#FBFBFB"/>
<path d="M128.595 73.0594L135.883 65.6048" stroke="#FBFBFB" stroke-width="0.500867" stroke-linecap="square"/>
<path fill-rule="evenodd" clip-rule="evenodd" d="M53.6414 49.6097L43.3486 42.6342Z" fill="#FBFBFB"/>
<path d="M53.6414 49.6097L43.3486 42.6342" stroke="#FBFBFB" stroke-width="0.500867" stroke-linecap="square"/>
<path fill-rule="evenodd" clip-rule="evenodd" d="M48.9815 30.9869L43.3486 42.6344Z" fill="#FBFBFB"/>
<path d="M48.9815 30.9869L43.3486 42.6344" stroke="#FBFBFB" stroke-width="0.500867" stroke-linecap="square"/>
</svg>
