<svg width="138" height="144" viewBox="0 0 138 144" fill="none" xmlns="http://www.w3.org/2000/svg">
<circle cx="35.5005" cy="37.1727" r="1.00173" transform="rotate(25.4752 35.5005 37.1727)" fill="#FBFBFB" stroke="#FBFBFB" stroke-width="0.500867"/>
<circle cx="61.4493" cy="35.111" r="1.00173" transform="rotate(25.4752 61.4493 35.111)" fill="#FBFBFB" stroke="#FBFBFB" stroke-width="0.500867"/>
<circle cx="23.2222" cy="57.1215" r="1.00173" transform="rotate(25.4752 23.2222 57.1215)" fill="#FBFBFB" stroke="#FBFBFB" stroke-width="0.500867"/>
<circle cx="70.5108" cy="58.0142" r="1.00173" transform="rotate(25.4752 70.5108 58.0142)" fill="#FBFBFB" stroke="#FBFBFB" stroke-width="0.500867"/>
<circle cx="72.6079" cy="68.1679" r="1.00173" transform="rotate(25.4752 72.6079 68.1679)" fill="#FBFBFB" stroke="#FBFBFB" stroke-width="0.500867"/>
<circle cx="88.9961" cy="64.0475" r="1.00173" transform="rotate(25.4752 88.9961 64.0475)" fill="#FBFBFB" stroke="#FBFBFB" stroke-width="0.500867"/>
<circle cx="105.049" cy="65.8704" r="1.00173" transform="rotate(25.4752 105.049 65.8704)" fill="#FBFBFB" stroke="#FBFBFB" stroke-width="0.500867"/>
<circle cx="119.414" cy="61.3404" r="1.00173" transform="rotate(25.4752 119.414 61.3404)" fill="#FBFBFB" stroke="#FBFBFB" stroke-width="0.500867"/>
<circle cx="84.0342" cy="56.4126" r="1.00173" transform="rotate(25.4752 84.0342 56.4126)" fill="#FBFBFB" stroke="#FBFBFB" stroke-width="0.500867"/>
<circle cx="84.1363" cy="32.327" r="1.00173" transform="rotate(25.4752 84.1363 32.327)" fill="#FBFBFB" stroke="#FBFBFB" stroke-width="0.500867"/>
<circle cx="84.5479" cy="18.653" r="1.00173" transform="rotate(25.4752 84.5479 18.653)" fill="#FBFBFB" stroke="#FBFBFB" stroke-width="0.500867"/>
<circle cx="103.356" cy="82.8173" r="1.00173" transform="rotate(25.4752 103.356 82.8173)" fill="#FBFBFB" stroke="#FBFBFB" stroke-width="0.500867"/>
<circle cx="35.0577" cy="96.3265" r="1.00173" transform="rotate(25.4752 35.0577 96.3265)" fill="#FBFBFB" stroke="#FBFBFB" stroke-width="0.500867"/>
<circle cx="30.9097" cy="107.943" r="1.00173" transform="rotate(25.4752 30.9097 107.943)" fill="#FBFBFB" stroke="#FBFBFB" stroke-width="0.500867"/>
<circle cx="26.064" cy="112.292" r="1.00173" transform="rotate(25.4752 26.064 112.292)" fill="#FBFBFB" stroke="#FBFBFB" stroke-width="0.500867"/>
<circle cx="11.9107" cy="86.6852" r="1.00173" transform="rotate(25.4752 11.9107 86.6852)" fill="#FBFBFB" stroke="#FBFBFB" stroke-width="0.500867"/>
<circle cx="23.0269" cy="64.5182" r="1.00173" transform="rotate(25.4752 23.0269 64.5182)" fill="#FBFBFB" stroke="#FBFBFB" stroke-width="0.500867"/>
<circle cx="89.2696" cy="96.0793" r="1.00173" transform="rotate(25.4752 89.2696 96.0793)" fill="#FBFBFB" stroke="#FBFBFB" stroke-width="0.500867"/>
<circle cx="90.6446" cy="109.495" r="1.00173" transform="rotate(25.4752 90.6446 109.495)" fill="#FBFBFB" stroke="#FBFBFB" stroke-width="0.500867"/>
<circle cx="112.397" cy="92.9509" r="1.00173" transform="rotate(25.4752 112.397 92.9509)" fill="#FBFBFB" stroke="#FBFBFB" stroke-width="0.500867"/>
<path fill-rule="evenodd" clip-rule="evenodd" d="M84.1359 32.3269L84.5479 18.653Z" fill="#FBFBFB"/>
<path d="M84.1359 32.3269L84.5479 18.653" stroke="#FBFBFB" stroke-width="0.500867" stroke-linecap="square"/>
<path fill-rule="evenodd" clip-rule="evenodd" d="M84.1363 32.3269L70.5107 58.0141Z" fill="#FBFBFB"/>
<path d="M84.1363 32.3269L70.5107 58.0141" stroke="#FBFBFB" stroke-width="0.500867" stroke-linecap="square"/>
<path fill-rule="evenodd" clip-rule="evenodd" d="M72.6079 68.1678L70.5104 58.0141Z" fill="#FBFBFB"/>
<path d="M72.6079 68.1678L70.5104 58.0141" stroke="#FBFBFB" stroke-width="0.500867" stroke-linecap="square"/>
<path fill-rule="evenodd" clip-rule="evenodd" d="M72.6079 68.1678L88.9961 64.0475Z" fill="#FBFBFB"/>
<path d="M72.6079 68.1678L88.9961 64.0475" stroke="#FBFBFB" stroke-width="0.500867" stroke-linecap="square"/>
<path fill-rule="evenodd" clip-rule="evenodd" d="M84.0342 56.4125L88.9962 64.0474Z" fill="#FBFBFB"/>
<path d="M84.0342 56.4125L88.9962 64.0474" stroke="#FBFBFB" stroke-width="0.500867" stroke-linecap="square"/>
<path fill-rule="evenodd" clip-rule="evenodd" d="M105.049 65.8704L88.9963 64.0474Z" fill="#FBFBFB"/>
<path d="M105.049 65.8704L88.9963 64.0474" stroke="#FBFBFB" stroke-width="0.500867" stroke-linecap="square"/>
<path fill-rule="evenodd" clip-rule="evenodd" d="M105.049 65.8704L119.414 61.3405Z" fill="#FBFBFB"/>
<path d="M105.049 65.8704L119.414 61.3405" stroke="#FBFBFB" stroke-width="0.500867" stroke-linecap="square"/>
<path fill-rule="evenodd" clip-rule="evenodd" d="M105.049 65.8704L103.355 82.8172Z" fill="#FBFBFB"/>
<path d="M105.049 65.8704L103.355 82.8172" stroke="#FBFBFB" stroke-width="0.500867" stroke-linecap="square"/>
<path fill-rule="evenodd" clip-rule="evenodd" d="M89.2695 96.0794L103.355 82.8173Z" fill="#FBFBFB"/>
<path d="M89.2695 96.0794L103.355 82.8173" stroke="#FBFBFB" stroke-width="0.500867" stroke-linecap="square"/>
<path fill-rule="evenodd" clip-rule="evenodd" d="M89.2695 96.0793L90.6449 109.495Z" fill="#FBFBFB"/>
<path d="M89.2695 96.0793L90.6449 109.495" stroke="#FBFBFB" stroke-width="0.500867" stroke-linecap="square"/>
<path fill-rule="evenodd" clip-rule="evenodd" d="M112.397 92.9509L103.355 82.8173Z" fill="#FBFBFB"/>
<path d="M112.397 92.9509L103.355 82.8173" stroke="#FBFBFB" stroke-width="0.500867" stroke-linecap="square"/>
<path fill-rule="evenodd" clip-rule="evenodd" d="M84.0342 56.4126L70.5105 58.014Z" fill="#FBFBFB"/>
<path d="M84.0342 56.4126L70.5105 58.014" stroke="#FBFBFB" stroke-width="0.500867" stroke-linecap="square"/>
<path fill-rule="evenodd" clip-rule="evenodd" d="M61.4492 35.1108L70.5103 58.0141Z" fill="#FBFBFB"/>
<path d="M61.4492 35.1108L70.5103 58.0141" stroke="#FBFBFB" stroke-width="0.500867" stroke-linecap="square"/>
<path fill-rule="evenodd" clip-rule="evenodd" d="M61.4496 35.1109L35.5008 37.1727Z" fill="#FBFBFB"/>
<path d="M61.4496 35.1109L35.5008 37.1727" stroke="#FBFBFB" stroke-width="0.500867" stroke-linecap="square"/>
<path fill-rule="evenodd" clip-rule="evenodd" d="M23.2221 57.1215L35.5006 37.1728Z" fill="#FBFBFB"/>
<path d="M23.2221 57.1215L35.5006 37.1728" stroke="#FBFBFB" stroke-width="0.500867" stroke-linecap="square"/>
<path fill-rule="evenodd" clip-rule="evenodd" d="M23.2222 57.1214L23.0268 64.5183Z" fill="#FBFBFB"/>
<path d="M23.2222 57.1214L23.0268 64.5183" stroke="#FBFBFB" stroke-width="0.500867" stroke-linecap="square"/>
<path fill-rule="evenodd" clip-rule="evenodd" d="M11.9105 86.6853L23.0266 64.5184Z" fill="#FBFBFB"/>
<path d="M11.9105 86.6853L23.0266 64.5184" stroke="#FBFBFB" stroke-width="0.500867" stroke-linecap="square"/>
<path fill-rule="evenodd" clip-rule="evenodd" d="M11.9106 86.6853L35.0576 96.3265Z" fill="#FBFBFB"/>
<path d="M11.9106 86.6853L35.0576 96.3265" stroke="#FBFBFB" stroke-width="0.500867" stroke-linecap="square"/>
<path fill-rule="evenodd" clip-rule="evenodd" d="M11.9106 86.6853L30.91 107.943Z" fill="#FBFBFB"/>
<path d="M11.9106 86.6853L30.91 107.943" stroke="#FBFBFB" stroke-width="0.500867" stroke-linecap="square"/>
<path fill-rule="evenodd" clip-rule="evenodd" d="M30.9099 107.943L35.0576 96.3264Z" fill="#FBFBFB"/>
<path d="M30.9099 107.943L35.0576 96.3264" stroke="#FBFBFB" stroke-width="0.500867" stroke-linecap="square"/>
<path fill-rule="evenodd" clip-rule="evenodd" d="M30.9098 107.943L26.1768 112.346Z" fill="#FBFBFB"/>
<path d="M30.9098 107.943L26.1768 112.346" stroke="#FBFBFB" stroke-width="0.500867" stroke-linecap="square"/>
</svg>
