<svg width="141" height="128" viewBox="0 0 141 128" fill="none" xmlns="http://www.w3.org/2000/svg">
<circle cx="135.066" cy="50.5454" r="1.00173" transform="rotate(22.5945 135.066 50.5454)" fill="#FBFBFB" stroke="#FBFBFB" stroke-width="0.500867"/>
<circle cx="126.931" cy="40.1078" r="1.00173" transform="rotate(22.5945 126.931 40.1078)" fill="#FBFBFB" stroke="#FBFBFB" stroke-width="0.500867"/>
<circle cx="108.388" cy="59.2452" r="1.00173" transform="rotate(22.5945 108.388 59.2452)" fill="#FBFBFB" stroke="#FBFBFB" stroke-width="0.500867"/>
<circle cx="115.682" cy="86.6933" r="1.00173" transform="rotate(22.5945 115.682 86.6933)" fill="#FBFBFB" stroke="#FBFBFB" stroke-width="0.500867"/>
<circle cx="123.422" cy="75.2664" r="1.00173" transform="rotate(22.5945 123.422 75.2664)" fill="#FBFBFB" stroke="#FBFBFB" stroke-width="0.500867"/>
<circle cx="100.258" cy="58.5746" r="1.00173" transform="rotate(22.5945 100.258 58.5746)" fill="#FBFBFB" stroke="#FBFBFB" stroke-width="0.500867"/>
<circle cx="90.8005" cy="59.7924" r="1.00173" transform="rotate(22.5945 90.8005 59.7924)" fill="#FBFBFB" stroke="#FBFBFB" stroke-width="0.500867"/>
<circle cx="66.7072" cy="73.365" r="1.00173" transform="rotate(22.5945 66.7072 73.365)" fill="#FBFBFB" stroke="#FBFBFB" stroke-width="0.500867"/>
<circle cx="55.1349" cy="86.1809" r="1.00173" transform="rotate(22.5945 55.1349 86.1809)" fill="#FBFBFB" stroke="#FBFBFB" stroke-width="0.500867"/>
<circle cx="45.759" cy="98.2829" r="1.00173" transform="rotate(22.5945 45.759 98.2829)" fill="#FBFBFB" stroke="#FBFBFB" stroke-width="0.500867"/>
<circle cx="31.155" cy="94.918" r="1.00173" transform="rotate(22.5945 31.155 94.918)" fill="#FBFBFB" stroke="#FBFBFB" stroke-width="0.500867"/>
<circle cx="12.6769" cy="85.8722" r="1.00173" transform="rotate(22.5945 12.6769 85.8722)" fill="#FBFBFB" stroke="#FBFBFB" stroke-width="0.500867"/>
<circle cx="6.96843" cy="71.5614" r="1.00173" transform="rotate(22.5945 6.96843 71.5614)" fill="#FBFBFB" stroke="#FBFBFB" stroke-width="0.500867"/>
<circle cx="18.9494" cy="69.4949" r="1.00173" transform="rotate(22.5945 18.9494 69.4949)" fill="#FBFBFB" stroke="#FBFBFB" stroke-width="0.500867"/>
<circle cx="31.4709" cy="68.7381" r="1.00173" transform="rotate(22.5945 31.4709 68.7381)" fill="#FBFBFB" stroke="#FBFBFB" stroke-width="0.500867"/>
<circle cx="31.0241" cy="60.6858" r="1.00173" transform="rotate(22.5945 31.0241 60.6858)" fill="#FBFBFB" stroke="#FBFBFB" stroke-width="0.500867"/>
<circle cx="14.5524" cy="57.8998" r="1.00173" transform="rotate(22.5945 14.5524 57.8998)" fill="#FBFBFB" stroke="#FBFBFB" stroke-width="0.500867"/>
<circle cx="131.507" cy="62.3559" r="1.00173" transform="rotate(22.5945 131.507 62.3559)" fill="#FBFBFB" stroke="#FBFBFB" stroke-width="0.500867"/>
<path fill-rule="evenodd" clip-rule="evenodd" d="M131.507 62.3558L135.065 50.5453Z" fill="#FBFBFB"/>
<path d="M131.507 62.3558L135.065 50.5453" stroke="#FBFBFB" stroke-width="0.500867" stroke-linecap="square"/>
<path fill-rule="evenodd" clip-rule="evenodd" d="M126.931 40.1078L135.065 50.5454Z" fill="#FBFBFB"/>
<path d="M126.931 40.1078L135.065 50.5454" stroke="#FBFBFB" stroke-width="0.500867" stroke-linecap="square"/>
<path fill-rule="evenodd" clip-rule="evenodd" d="M126.931 40.1077L108.388 59.2452Z" fill="#FBFBFB"/>
<path d="M126.931 40.1077L108.388 59.2452" stroke="#FBFBFB" stroke-width="0.500867" stroke-linecap="square"/>
<path fill-rule="evenodd" clip-rule="evenodd" d="M115.682 86.6933L108.388 59.2452Z" fill="#FBFBFB"/>
<path d="M115.682 86.6933L108.388 59.2452" stroke="#FBFBFB" stroke-width="0.500867" stroke-linecap="square"/>
<path fill-rule="evenodd" clip-rule="evenodd" d="M100.259 58.5746L108.389 59.2453Z" fill="#FBFBFB"/>
<path d="M100.259 58.5746L108.389 59.2453" stroke="#FBFBFB" stroke-width="0.500867" stroke-linecap="square"/>
<path fill-rule="evenodd" clip-rule="evenodd" d="M100.259 58.5746L90.8007 59.7925Z" fill="#FBFBFB"/>
<path d="M100.259 58.5746L90.8007 59.7925" stroke="#FBFBFB" stroke-width="0.500867" stroke-linecap="square"/>
<path fill-rule="evenodd" clip-rule="evenodd" d="M66.7072 73.3651L90.8006 59.7924Z" fill="#FBFBFB"/>
<path d="M66.7072 73.3651L90.8006 59.7924" stroke="#FBFBFB" stroke-width="0.500867" stroke-linecap="square"/>
<path fill-rule="evenodd" clip-rule="evenodd" d="M66.707 73.3651L55.135 86.1809Z" fill="#FBFBFB"/>
<path d="M66.707 73.3651L55.135 86.1809" stroke="#FBFBFB" stroke-width="0.500867" stroke-linecap="square"/>
<path fill-rule="evenodd" clip-rule="evenodd" d="M45.7587 98.2829L55.1349 86.1808Z" fill="#FBFBFB"/>
<path d="M45.7587 98.2829L55.1349 86.1808" stroke="#FBFBFB" stroke-width="0.500867" stroke-linecap="square"/>
<path fill-rule="evenodd" clip-rule="evenodd" d="M45.7587 98.2829L31.155 94.9181Z" fill="#FBFBFB"/>
<path d="M45.7587 98.2829L31.155 94.9181" stroke="#FBFBFB" stroke-width="0.500867" stroke-linecap="square"/>
<path fill-rule="evenodd" clip-rule="evenodd" d="M12.6768 85.8721L31.1551 94.9181Z" fill="#FBFBFB"/>
<path d="M12.6768 85.8721L31.1551 94.9181" stroke="#FBFBFB" stroke-width="0.500867" stroke-linecap="square"/>
<path fill-rule="evenodd" clip-rule="evenodd" d="M12.6765 85.8722L6.968 71.5615Z" fill="#FBFBFB"/>
<path d="M12.6765 85.8722L6.968 71.5615" stroke="#FBFBFB" stroke-width="0.500867" stroke-linecap="square"/>
<path fill-rule="evenodd" clip-rule="evenodd" d="M18.9497 69.4948L6.96831 71.5614Z" fill="#FBFBFB"/>
<path d="M18.9497 69.4948L6.96831 71.5614" stroke="#FBFBFB" stroke-width="0.500867" stroke-linecap="square"/>
<path fill-rule="evenodd" clip-rule="evenodd" d="M18.9496 69.4948L31.471 68.738Z" fill="#FBFBFB"/>
<path d="M18.9496 69.4948L31.471 68.738" stroke="#FBFBFB" stroke-width="0.500867" stroke-linecap="square"/>
<path fill-rule="evenodd" clip-rule="evenodd" d="M31.4868 60.8783L31.471 68.738Z" fill="#FBFBFB"/>
<path d="M31.4868 60.8783L31.471 68.738" stroke="#FBFBFB" stroke-width="0.500867" stroke-linecap="square"/>
<path fill-rule="evenodd" clip-rule="evenodd" d="M31.487 60.8783L14.5526 57.8999Z" fill="#FBFBFB"/>
<path d="M31.487 60.8783L14.5526 57.8999" stroke="#FBFBFB" stroke-width="0.500867" stroke-linecap="square"/>
<path fill-rule="evenodd" clip-rule="evenodd" d="M115.682 86.6932L123.421 75.2662Z" fill="#FBFBFB"/>
<path d="M115.682 86.6932L123.421 75.2662" stroke="#FBFBFB" stroke-width="0.500867" stroke-linecap="square"/>
</svg>
