<svg width="135" height="136" viewBox="0 0 135 136" fill="none" xmlns="http://www.w3.org/2000/svg">
<circle cx="10.7493" cy="67.6672" r="1.00173" transform="rotate(-47.3726 10.7493 67.6672)" fill="#FBFBFB" stroke="#FBFBFB" stroke-width="0.500867"/>
<circle cx="43.158" cy="62.7795" r="1.00173" transform="rotate(-47.3726 43.158 62.7795)" fill="#FBFBFB" stroke="#FBFBFB" stroke-width="0.500867"/>
<circle cx="69.2708" cy="59.9252" r="1.00173" transform="rotate(-47.3726 69.2708 59.9252)" fill="#FBFBFB" stroke="#FBFBFB" stroke-width="0.500867"/>
<circle cx="78.2932" cy="63.805" r="1.00173" transform="rotate(-47.3726 78.2932 63.805)" fill="#FBFBFB" stroke="#FBFBFB" stroke-width="0.500867"/>
<circle cx="97.0476" cy="63.028" r="1.00173" transform="rotate(-47.3726 97.0476 63.028)" fill="#FBFBFB" stroke="#FBFBFB" stroke-width="0.500867"/>
<circle cx="114.516" cy="44.0489" r="1.00173" transform="rotate(-47.3726 114.516 44.0489)" fill="#FBFBFB" stroke="#FBFBFB" stroke-width="0.500867"/>
<circle cx="124.025" cy="51.0989" r="1.00173" transform="rotate(-47.3726 124.025 51.0989)" fill="#FBFBFB" stroke="#FBFBFB" stroke-width="0.500867"/>
<circle cx="111.64" cy="81.5648" r="1.00173" transform="rotate(-47.3726 111.64 81.5648)" fill="#FBFBFB" stroke="#FBFBFB" stroke-width="0.500867"/>
<circle cx="94.5813" cy="80.4992" r="1.00173" transform="rotate(-47.3726 94.5813 80.4992)" fill="#FBFBFB" stroke="#FBFBFB" stroke-width="0.500867"/>
<circle cx="71.5091" cy="71.1757" r="1.00173" transform="rotate(-47.3726 71.5091 71.1757)" fill="#FBFBFB" stroke="#FBFBFB" stroke-width="0.500867"/>
<circle cx="61.0691" cy="75.8618" r="1.00173" transform="rotate(-47.3726 61.0691 75.8618)" fill="#FBFBFB" stroke="#FBFBFB" stroke-width="0.500867"/>
<circle cx="18.3294" cy="92.3432" r="1.00173" transform="rotate(-47.3726 18.3294 92.3432)" fill="#FBFBFB" stroke="#FBFBFB" stroke-width="0.500867"/>
<path fill-rule="evenodd" clip-rule="evenodd" d="M10.749 67.6671L43.1578 62.7795Z" fill="#FBFBFB"/>
<path d="M10.749 67.6671L43.1578 62.7795" stroke="#FBFBFB" stroke-width="0.500867" stroke-linecap="square"/>
<path fill-rule="evenodd" clip-rule="evenodd" d="M69.2703 59.9253L43.1577 62.7796Z" fill="#FBFBFB"/>
<path d="M69.2703 59.9253L43.1577 62.7796" stroke="#FBFBFB" stroke-width="0.500867" stroke-linecap="square"/>
<path fill-rule="evenodd" clip-rule="evenodd" d="M69.2707 59.9252L78.2932 63.805Z" fill="#FBFBFB"/>
<path d="M69.2707 59.9252L78.2932 63.805" stroke="#FBFBFB" stroke-width="0.500867" stroke-linecap="square"/>
<path fill-rule="evenodd" clip-rule="evenodd" d="M71.509 71.1757L78.293 63.8052Z" fill="#FBFBFB"/>
<path d="M71.509 71.1757L78.293 63.8052" stroke="#FBFBFB" stroke-width="0.500867" stroke-linecap="square"/>
<path fill-rule="evenodd" clip-rule="evenodd" d="M97.0481 63.0278L78.2933 63.8049Z" fill="#FBFBFB"/>
<path d="M97.0481 63.0278L78.2933 63.8049" stroke="#FBFBFB" stroke-width="0.500867" stroke-linecap="square"/>
<path fill-rule="evenodd" clip-rule="evenodd" d="M97.0477 63.0279L114.517 44.0489Z" fill="#FBFBFB"/>
<path d="M97.0477 63.0279L114.517 44.0489" stroke="#FBFBFB" stroke-width="0.500867" stroke-linecap="square"/>
<path fill-rule="evenodd" clip-rule="evenodd" d="M97.0478 63.0279L94.5814 80.4992Z" fill="#FBFBFB"/>
<path d="M97.0478 63.0279L94.5814 80.4992" stroke="#FBFBFB" stroke-width="0.500867" stroke-linecap="square"/>
<path fill-rule="evenodd" clip-rule="evenodd" d="M111.64 81.5647L94.5815 80.4992Z" fill="#FBFBFB"/>
<path d="M111.64 81.5647L94.5815 80.4992" stroke="#FBFBFB" stroke-width="0.500867" stroke-linecap="square"/>
<path fill-rule="evenodd" clip-rule="evenodd" d="M124.025 51.0988L114.517 44.0489Z" fill="#FBFBFB"/>
<path d="M124.025 51.0988L114.517 44.0489" stroke="#FBFBFB" stroke-width="0.500867" stroke-linecap="square"/>
<path fill-rule="evenodd" clip-rule="evenodd" d="M71.5088 71.1756L61.0688 75.8618Z" fill="#FBFBFB"/>
<path d="M71.5088 71.1756L61.0688 75.8618" stroke="#FBFBFB" stroke-width="0.500867" stroke-linecap="square"/>
<path fill-rule="evenodd" clip-rule="evenodd" d="M18.3293 92.3433L61.069 75.8618Z" fill="#FBFBFB"/>
<path d="M18.3293 92.3433L61.069 75.8618" stroke="#FBFBFB" stroke-width="0.500867" stroke-linecap="square"/>
</svg>
