<svg width="139" height="122" viewBox="0 0 139 122" fill="none" xmlns="http://www.w3.org/2000/svg">
<circle cx="61.7752" cy="68.1023" r="1.00173" transform="rotate(62.4638 61.7752 68.1023)" fill="#FBFBFB" stroke="#FBFBFB" stroke-width="0.500867"/>
<circle cx="91.014" cy="41.8436" r="1.00173" transform="rotate(62.4638 91.014 41.8436)" fill="#FBFBFB" stroke="#FBFBFB" stroke-width="0.500867"/>
<circle cx="75.3821" cy="84.4496" r="1.00173" transform="rotate(62.4638 75.3821 84.4496)" fill="#FBFBFB" stroke="#FBFBFB" stroke-width="0.500867"/>
<circle cx="60.4642" cy="96.4638" r="1.00173" transform="rotate(62.4638 60.4642 96.4638)" fill="#FBFBFB" stroke="#FBFBFB" stroke-width="0.500867"/>
<circle cx="114.742" cy="73.8131" r="1.00173" transform="rotate(62.4638 114.742 73.8131)" fill="#FBFBFB" stroke="#FBFBFB" stroke-width="0.500867"/>
<circle cx="97.1917" cy="75.903" r="1.00173" transform="rotate(62.4638 97.1917 75.903)" fill="#FBFBFB" stroke="#FBFBFB" stroke-width="0.500867"/>
<circle cx="90.3323" cy="61.1215" r="1.00173" transform="rotate(62.4638 90.3323 61.1215)" fill="#FBFBFB" stroke="#FBFBFB" stroke-width="0.500867"/>
<circle cx="136.59" cy="67.5061" r="1.00173" transform="rotate(62.4638 136.59 67.5061)" fill="#FBFBFB" stroke="#FBFBFB" stroke-width="0.500867"/>
<circle cx="27.6385" cy="76.298" r="1.00173" transform="rotate(62.4638 27.6385 76.298)" fill="#FBFBFB" stroke="#FBFBFB" stroke-width="0.500867"/>
<circle cx="9.48224" cy="69.1008" r="1.00173" transform="rotate(62.4638 9.48224 69.1008)" fill="#FBFBFB" stroke="#FBFBFB" stroke-width="0.500867"/>
<circle cx="15.1649" cy="47.498" r="1.00173" transform="rotate(62.4638 15.1649 47.498)" fill="#FBFBFB" stroke="#FBFBFB" stroke-width="0.500867"/>
<circle cx="43.5814" cy="58.6656" r="1.00173" transform="rotate(62.4638 43.5814 58.6656)" fill="#FBFBFB" stroke="#FBFBFB" stroke-width="0.500867"/>
<path fill-rule="evenodd" clip-rule="evenodd" d="M136.59 67.506L114.743 73.8131Z" fill="#FBFBFB"/>
<path d="M136.59 67.506L114.743 73.8131" stroke="#FBFBFB" stroke-width="0.500867" stroke-linecap="square"/>
<path fill-rule="evenodd" clip-rule="evenodd" d="M97.1919 75.9028L114.743 73.8131Z" fill="#FBFBFB"/>
<path d="M97.1919 75.9028L114.743 73.8131" stroke="#FBFBFB" stroke-width="0.500867" stroke-linecap="square"/>
<path fill-rule="evenodd" clip-rule="evenodd" d="M97.1919 75.903L90.3325 61.1215Z" fill="#FBFBFB"/>
<path d="M97.1919 75.903L90.3325 61.1215" stroke="#FBFBFB" stroke-width="0.500867" stroke-linecap="square"/>
<path fill-rule="evenodd" clip-rule="evenodd" d="M97.192 75.903L75.3822 84.4496Z" fill="#FBFBFB"/>
<path d="M97.192 75.903L75.3822 84.4496" stroke="#FBFBFB" stroke-width="0.500867" stroke-linecap="square"/>
<path fill-rule="evenodd" clip-rule="evenodd" d="M60.4642 96.464L75.3823 84.4497Z" fill="#FBFBFB"/>
<path d="M60.4642 96.464L75.3823 84.4497" stroke="#FBFBFB" stroke-width="0.500867" stroke-linecap="square"/>
<path fill-rule="evenodd" clip-rule="evenodd" d="M60.464 96.464L61.7754 68.1024Z" fill="#FBFBFB"/>
<path d="M60.464 96.464L61.7754 68.1024" stroke="#FBFBFB" stroke-width="0.500867" stroke-linecap="square"/>
<path fill-rule="evenodd" clip-rule="evenodd" d="M60.4638 96.4638L27.6381 76.2978Z" fill="#FBFBFB"/>
<path d="M60.4638 96.4638L27.6381 76.2978" stroke="#FBFBFB" stroke-width="0.500867" stroke-linecap="square"/>
<path fill-rule="evenodd" clip-rule="evenodd" d="M9.48235 69.1008L27.6385 76.2979Z" fill="#FBFBFB"/>
<path d="M9.48235 69.1008L27.6385 76.2979" stroke="#FBFBFB" stroke-width="0.500867" stroke-linecap="square"/>
<path fill-rule="evenodd" clip-rule="evenodd" d="M43.5815 58.6656L61.7757 68.1023Z" fill="#FBFBFB"/>
<path d="M43.5815 58.6656L61.7757 68.1023" stroke="#FBFBFB" stroke-width="0.500867" stroke-linecap="square"/>
<path fill-rule="evenodd" clip-rule="evenodd" d="M43.5812 58.6657L15.1646 47.498Z" fill="#FBFBFB"/>
<path d="M43.5812 58.6657L15.1646 47.498" stroke="#FBFBFB" stroke-width="0.500867" stroke-linecap="square"/>
<path fill-rule="evenodd" clip-rule="evenodd" d="M91.0138 41.8437L90.3325 61.1215Z" fill="#FBFBFB"/>
<path d="M91.0138 41.8437L90.3325 61.1215" stroke="#FBFBFB" stroke-width="0.500867" stroke-linecap="square"/>
<path fill-rule="evenodd" clip-rule="evenodd" d="M61.7755 68.1024L90.3326 61.1215Z" fill="#FBFBFB"/>
<path d="M61.7755 68.1024L90.3326 61.1215" stroke="#FBFBFB" stroke-width="0.500867" stroke-linecap="square"/>
</svg>
